<svg width="64" height="64" viewBox="0 0 64 64"
     xmlns="http://www.w3.org/2000/svg">

    <defs>
        <linearGradient id="bg" x1="0" y1="0" x2="0" y2="1">
            <stop offset="0%" stop-color="#c9ecff"/>
            <stop offset="100%" stop-color="#8fcfff"/>
        </linearGradient>
    </defs>

    <!-- 背景 -->
    <rect x="4" y="4" width="56" height="56" rx="14" fill="url(#bg)"/>

    <!-- 云 -->
    <path d="
    M20 36
    c-6 0-10-5-10-9
    c0-5 4-9 9-10
    c2-6 7-10 14-10
    c9 0 16 7 17 14
    h1
    c6 0 11 4 11 9
    s-5 6-11 6
    z"
          fill="#ffffff"
          stroke="#3a8fd9"
          stroke-width="2"/>

    <!-- </> -->
    <path d="M26 28 l-5 4 5 4"
          fill="none" stroke="#2f7edb" stroke-width="3"
          stroke-linecap="round" stroke-linejoin="round"/>
    <path d="M38 28 l5 4 -5 4"
          fill="none" stroke="#2f7edb" stroke-width="3"
          stroke-linecap="round" stroke-linejoin="round"/>

    <!-- 勾 -->
    <path d="M28 40 l5 5 9-11"
          fill="none" stroke="#2f7edb" stroke-width="3"
          stroke-linecap="round" stroke-linejoin="round"/>

</svg>
